<svg width="150" height="41" viewBox="0 0 150 41" fill="none" xmlns="http://www.w3.org/2000/svg">
<g clip-path="url(#clip0_1_20)">
<path fill-rule="evenodd" clip-rule="evenodd" d="M0 23.9844H6.22277V40.7355H9.54157V23.9844H15.792V20.9954H0V23.9844ZM42.9406 27.7348C42.9406 23.4486 40.0406 20.9954 35.0008 20.9954H27.004V40.7355H30.3228V34.7852H34.9976C35.3074 34.7852 35.6171 34.7852 35.8984 34.7567L39.5025 40.7355H43.2757L38.8585 34.1378C41.4764 33.1209 42.9406 30.8932 42.9406 27.7348ZM35.0008 31.7961H30.326V23.9844H35.0008C38.0415 23.9844 39.787 25.2253 39.787 27.8194C39.787 30.4975 38.0415 31.7961 35.0008 31.7961ZM55.7252 40.7387H59.044V20.9954H55.7252V40.7387ZM86.4178 35.1832L75.8585 20.9954H72.5918V40.7355H75.9146V26.5786L86.4178 40.7355H89.6837V20.9954H86.4178V35.1832ZM119.898 20.9985H115.984L106.581 31.2073V20.9985H103.257V40.7355H106.58V35.7158L109.93 32.0217L116.41 40.7355H120.408L112.269 29.4267L119.898 20.9985ZM141.383 20.9985H137.978L129.275 40.7355H132.739L134.625 36.2793H144.565L146.451 40.7355H149.999L141.383 20.9985ZM135.864 33.3219L139.578 24.5518L143.292 33.3219H135.864Z" fill="black"/>
<path d="M8.03786 15.3543C12.2715 15.3543 15.7035 11.9171 15.7035 7.67717C15.7035 3.43718 12.2715 0 8.03786 0C3.80423 0 0.372192 3.43718 0.372192 7.67717C0.372192 11.9171 3.80423 15.3543 8.03786 15.3543Z" fill="#763393"/>
<path d="M32.7548 15.3541C36.9884 15.3541 40.4205 11.9169 40.4205 7.67693C40.4205 3.43695 36.9884 -0.000244141 32.7548 -0.000244141C28.5212 -0.000244141 25.0891 3.43695 25.0891 7.67693C25.0891 11.9169 28.5212 15.3541 32.7548 15.3541Z" fill="#FF5C5C"/>
<path d="M57.3149 15.3539C61.5485 15.3539 64.9805 11.9167 64.9805 7.67668C64.9805 3.4367 61.5485 -0.000488281 57.3149 -0.000488281C53.0813 -0.000488281 49.6494 3.4367 49.6494 7.67668C49.6494 11.9167 53.0813 15.3539 57.3149 15.3539Z" fill="#FDB933"/>
</g>
<defs>
<clipPath id="clip0_1_20">
<rect width="150" height="40.7347" fill="white"/>
</clipPath>
</defs>
</svg>
